<?xml version="1.0" encoding="UTF-8" standalone="no"?>
<!-- Created with Inkscape (http://www.inkscape.org/) -->

<svg
   width="137.47214mm"
   height="21.162411mm"
   viewBox="0 0 137.47214 21.162411"
   version="1.1"
   id="svg1"
   xmlns="http://www.w3.org/2000/svg"
   xmlns:svg="http://www.w3.org/2000/svg">
  <defs
     id="defs1" />
  <g
     id="layer1"
     transform="translate(-46.955559,-89.047371)">
    <path
       id="rect1"
       style="fill:#008000;stroke-width:0.899888"
       d="m 105.37126,97.25928 3.29588,-4.899562 h 12.32626 l 2.68187,2.114548 0.77361,-2.114548 h 2.78013 v 14.563812 h -3.41823 l -0.0938,-2.33313 -4.31892,-0.29261 -0.54702,2.62574 h -4.26683 l -0.0729,-2.62574 -2.18812,2.62574 -7.14097,0.0729 0.0745,-3.83502 0.59299,-1.25118 -0.5662,-0.12867 z" />
    <path
       id="rect2"
       style="fill:#ffff00;stroke-width:1.90613"
       d="m 76.253227,92.359737 -4.191476,0.145728 -0.186035,10.175085 2.990515,4.24316 h 22.093742 l 2.461865,-1.79524 0.05994,-3.49178 -4.068485,-0.16691 1.038696,-1.18495 -0.03411,-2.711974 -1.611271,-0.152963 0.04754,-1.491381 4.529956,0.141593 -0.127641,-3.56464 -17.83147,-0.145728 v 1.5875 h -5.171777 z m 50.975703,0 v 14.563973 h 11.82563 l 3.50108,-3.90209 2.40709,3.90209 h 15.97318 l -0.10955,-2.69855 2.62568,2.69855 h 4.31085 V 92.359737 h -6.38928 l -0.69298,2.078943 -2.62568,-2.078943 h -6.12676 l -0.26406,1.698604 -4.62298,0.0155 v -1.714107 h -10.68513 l -3.06338,4.522205 0.0367,-4.522205 z M 63.445223,92.906991 V 106.92371 H 65.68798 V 95.386943 Z m 66.566997,4.682918 h 3.02514 v 3.792531 h -3.02514 z" />
    <path
       id="rect3"
       style="fill:#ff6600;stroke-width:2.18303"
       d="m 50.635669,92.359737 -3.445268,3.445268 v 11.118705 h 6.097819 l 3.347599,-3.05563 -0.0078,3.05563 h 6.817155 V 92.359737 Z m 117.127221,0 v 14.563973 h 16.2543 V 92.359737 h -5.95674 l -2.61018,2.677356 h -5.43377 v -2.677356 z" />
    <rect
       style="fill:#0000ff;stroke:#ffffff;stroke-width:1"
       id="rect8"
       width="4.3322449"
       height="20.162411"
       x="140.42308"
       y="89.547371"
       ry="0" />
    <path
       style="-inkscape-font-specification:'Dimitri Swank';stroke-width:0.0892653"
       d="m 56.964735,102.64401 -0.462753,1.66248 -2.999325,2.96505 h -6.547098 l 0.01714,-11.6888 3.444939,-3.479217 h 6.547098 z m -0.736977,-0.3085 V 92.8405 h -5.501619 l -2.57085,2.587989 v 9.443591 h 5.501619 z m -3.393522,-0.3942 H 51.56595 v -6.170041 h 1.268286 z m 13.385574,3.66774 -0.462753,1.66249 H 56.210635 V 93.766006 l 0.462753,-1.662483 h 6.547098 l 2.999324,2.965047 z m -0.736977,-0.73697 V 95.377072 L 62.911984,92.8405 h -5.501619 v 12.03158 h 3.410661 v -9.100811 h 1.268286 v 9.100811 z m 15.836469,0.73697 -0.462753,1.66249 h -6.615654 l -2.91363,-4.47328 v -9.032254 l 0.462753,-1.662483 h 4.867476 v 1.473954 h 4.661808 z m -0.719838,-7.918213 h -3.410661 v 4.250473 h -1.268286 v -5.535898 h 4.661808 V 94.314454 H 75.920517 V 92.8405 h -3.393522 v 8.07247 l 2.57085,3.95911 h 5.48448 z m 9.974914,7.918213 -0.462753,1.66249 H 85.91257 l -0.462753,1.55965 H 80.582341 V 93.766006 l 0.462753,-1.662483 h 9.529284 z m -0.736977,-0.73697 V 92.8405 h -3.393522 v 4.850337 H 85.175593 V 92.8405 h -3.393522 v 13.59123 h 3.393522 v -6.649935 h 1.268286 v 5.090285 z m 9.99205,0.73697 -0.462753,1.66249 H 89.837414 V 93.766006 l 0.462753,-1.662483 h 9.529284 v 4.404723 l -0.462753,1.662483 h -2.39946 v 2.348041 l -0.462753,0.68556 h 3.324966 z m -0.736977,-0.73697 v -2.93077 h -4.661808 v -2.159515 h 1.799595 v -2.090958 h -1.799595 v -1.919568 h 4.661808 V 92.8405 h -8.05533 v 12.03158 z m 15.870746,-8.363834 -0.17139,0.445614 h 0.15425 v 6.25573 l -0.46275,1.66249 -2.14238,2.39946 h -7.38691 v -4.18192 l 0.46276,-0.90837 h -0.46276 l 0.0171,-4.918888 3.35925,-5.158839 h 6.63279 z m -0.73698,-0.736977 V 92.8405 h -5.50162 l -2.57085,3.959109 v 2.982186 h 5.10743 v 2.382325 h -5.10743 v 2.70796 h 6.3243 l 1.73103,-1.93671 v -5.244533 h -4.7475 v -1.919568 z m 9.99206,-1.216869 -0.0171,8.68947 -0.46275,1.66249 -4.19906,-0.0171 v 0.71983 l -0.46275,1.66249 h -4.86748 V 93.766006 l 0.46276,-1.662483 h 6.49568 z m -0.73698,0.359919 -2.57085,-2.073819 h -5.50162 v 12.03158 h 3.39352 v -2.38232 h 4.66181 z m -3.41066,5.518761 h -1.26829 v -4.661811 h 1.26829 z m 13.38557,5.17597 -0.46275,1.66249 H 123.4642 V 93.766006 l 0.46275,-1.662483 h 9.52928 v 4.404723 l -0.46275,1.662483 h -2.39946 v 2.348041 l -0.46275,0.68556 h 3.32496 z m -0.73697,-0.73697 v -2.93077 h -4.66181 v -2.159515 h 1.79959 v -2.090958 h -1.79959 v -1.919568 h 4.66181 V 92.8405 h -8.05533 v 12.03158 z m 10.00919,-12.768557 v 10.540487 l -0.46276,1.66248 -2.99932,2.96505 h -6.5471 l 0.0171,-9.992039 3.35924,-5.175978 z m -0.73698,0.736977 h -5.50162 l -2.57085,3.959109 v 8.072471 h 5.50162 l 2.57085,-2.53657 -0.0171,-3.787723 h -3.39352 v 3.719163 h -1.26829 v -6.495681 h 1.26829 v 1.953846 h 3.41066 z m 9.97492,12.76855 -0.46276,1.66249 h -6.61565 l -2.91363,-4.47328 v -9.032254 l 0.46275,-1.662483 h 4.86748 v 1.473954 h 4.66181 z m -0.71984,-7.918213 h -3.41066 v 4.250473 h -1.26829 v -5.535898 h 4.66181 V 94.314454 H 146.5676 V 92.8405 h -3.39352 v 8.07247 l 2.57085,3.95911 h 5.48448 z m 9.99205,-3.136437 -0.0171,5.107422 -0.27422,0.565588 0.27422,0.27422 v 6.66707 l -0.46275,1.66249 h -4.86748 v -1.55965 h -4.66181 V 93.766006 l 0.46276,-1.662483 h 6.49568 z m -0.73698,0.359919 -2.57085,-2.073819 h -5.50162 v 12.03158 h 3.39353 v -4.918895 l 1.26828,1.285425 v 5.19312 h 3.39352 v -5.6216 l -1.86815,-1.868146 1.86815,-0.01714 z m -3.41066,2.776518 h -1.26828 v -1.919568 h 1.26828 z m 13.40271,7.918213 -0.46275,1.66249 h -6.52996 l -3.01646,-2.96505 V 93.766006 l 0.46275,-1.662483 h 9.54642 z m -0.73697,-0.73697 V 92.8405 h -3.41066 v 9.10081 h -1.26829 V 92.8405 h -3.39352 v 9.49501 l 2.57085,2.53657 z m 14.67099,0.73697 -0.46275,1.66249 H 169.73957 V 96.302578 l 0.46275,-1.662483 h 5.12456 l 2.57085,-2.536572 h 6.52996 z m -0.73697,-0.73697 V 92.8405 h -5.50162 l -2.57085,2.536572 h -4.67895 v 9.495008 h 3.41066 v -6.564239 h 1.26829 v 6.564239 h 3.39352 v -9.100811 h 1.26829 v 9.100811 z"
       id="text1"
       aria-label="On the Spectrum" />
  </g>
</svg>
