<?xml version="1.0" encoding="UTF-8" standalone="no"?>
<!-- Created with Inkscape (http://www.inkscape.org/) -->

<svg
   width="137.47214mm"
   height="21.352285mm"
   viewBox="0 0 137.47214 21.352286"
   version="1.1"
   id="svg1"
   xmlns:xlink="http://www.w3.org/1999/xlink"
   xmlns="http://www.w3.org/2000/svg"
   xmlns:svg="http://www.w3.org/2000/svg">
  <defs
     id="defs1">
    <linearGradient
       id="linearGradient47">
      <stop
         style="stop-color:#b3ffb3;stop-opacity:1;"
         offset="0"
         id="stop47" />
      <stop
         style="stop-color:#b3ffb3;stop-opacity:0;"
         offset="1"
         id="stop48" />
    </linearGradient>
    <linearGradient
       id="linearGradient45">
      <stop
         style="stop-color:#ffffb3;stop-opacity:1;"
         offset="0"
         id="stop45" />
      <stop
         style="stop-color:#ffffb3;stop-opacity:0;"
         offset="1"
         id="stop46" />
    </linearGradient>
    <linearGradient
       id="linearGradient43">
      <stop
         style="stop-color:#ffd1b3;stop-opacity:1;"
         offset="0"
         id="stop43" />
      <stop
         style="stop-color:#ffd1b3;stop-opacity:0;"
         offset="1"
         id="stop44" />
    </linearGradient>
    <linearGradient
       xlink:href="#linearGradient43"
       id="linearGradient44"
       x1="119.54404"
       y1="92.931511"
       x2="118.95728"
       y2="106.35194"
       gradientUnits="userSpaceOnUse" />
    <linearGradient
       xlink:href="#linearGradient45"
       id="linearGradient46"
       x1="117.90773"
       y1="92.421318"
       x2="117.83893"
       y2="107.27473"
       gradientUnits="userSpaceOnUse" />
    <linearGradient
       xlink:href="#linearGradient47"
       id="linearGradient48"
       x1="115.97691"
       y1="92.311424"
       x2="116.14257"
       y2="105.36717"
       gradientUnits="userSpaceOnUse" />
  </defs>
  <g
     id="layer1"
     transform="translate(-46.955559,-88.952431)">
    <path
       id="rect1"
       style="fill:#4cff4c;stroke-width:0.899888;fill-opacity:1"
       d="m 105.37126,97.25928 3.29588,-4.899562 h 12.32626 l 2.68187,2.114548 0.77361,-2.114548 h 2.78013 v 14.563812 h -3.41823 l -0.0938,-2.33313 -4.31892,-0.29261 -0.54702,2.62574 h -4.26683 l -0.0729,-2.62574 -2.18812,2.62574 -7.14097,0.0729 0.0745,-3.83502 0.59299,-1.25118 -0.5662,-0.12867 z" />
    <path
       id="rect2"
       style="fill:#ffff4c;stroke-width:1.90613;fill-opacity:1"
       d="m 76.253227,92.359737 -4.191476,0.145728 -0.186035,10.175085 2.990515,4.24316 h 22.093742 l 2.461865,-1.79524 0.05994,-3.49178 -4.068485,-0.16691 1.038696,-1.18495 -0.03411,-2.711974 -1.611271,-0.152963 0.04754,-1.491381 4.529956,0.141593 -0.127641,-3.56464 -17.83147,-0.145728 v 1.5875 h -5.171777 z m 50.975703,0 v 14.563973 h 11.82563 l 3.50108,-3.90209 2.40709,3.90209 h 15.97318 l -0.10955,-2.69855 2.62568,2.69855 h 4.31085 V 92.359737 h -6.38928 l -0.69298,2.078943 -2.62568,-2.078943 h -6.12676 l -0.26406,1.698604 -4.62298,0.0155 v -1.714107 h -10.68513 l -3.06338,4.522205 0.0367,-4.522205 z M 63.445223,92.906991 V 106.92371 H 65.68798 V 95.386943 Z m 66.566997,4.682918 h 3.02514 v 3.792531 h -3.02514 z" />
    <path
       id="rect3"
       style="fill:#ff944c;stroke-width:2.18303;opacity:1;fill-opacity:1"
       d="m 50.635669,92.359737 -3.445268,3.445268 v 11.118705 h 6.097819 l 3.347599,-3.05563 -0.0078,3.05563 h 6.817155 V 92.359737 Z m 117.127221,0 v 14.563973 h 16.2543 V 92.359737 h -5.95674 l -2.61018,2.677356 h -5.43377 v -2.677356 z" />
    <path
       id="path43"
       style="fill:url(#linearGradient44);stroke-width:2.18303;opacity:1;fill-opacity:1"
       d="m 50.635669,92.359737 -3.445268,3.445268 v 11.118705 h 6.097819 l 3.347599,-3.05563 -0.0078,3.05563 h 6.817155 V 92.359737 Z m 117.127221,0 v 14.563973 h 16.2543 V 92.359737 h -5.95674 l -2.61018,2.677356 h -5.43377 v -2.677356 z" />
    <g
       id="g43">
      <rect
         style="fill:#ffffff;stroke:none;stroke-width:0.851117"
         id="rect4"
         width="5.2682509"
         height="21.352285"
         x="139.95508"
         y="88.952431"
         ry="0" />
      <rect
         style="fill:#0000ff;stroke:none;stroke-width:0.717739"
         id="rect8"
         width="3.9675591"
         height="20.162411"
         x="140.60542"
         y="89.547371"
         ry="0" />
    </g>
    <path
       id="path44"
       style="fill:url(#linearGradient46);stroke-width:1.90613;fill-opacity:1"
       d="m 76.253227,92.359737 -4.191476,0.145728 -0.186035,10.175085 2.990515,4.24316 h 22.093742 l 2.461865,-1.79524 0.05994,-3.49178 -4.068485,-0.16691 1.038696,-1.18495 -0.03411,-2.711974 -1.611271,-0.152963 0.04754,-1.491381 4.529956,0.141593 -0.127641,-3.56464 -17.83147,-0.145728 v 1.5875 h -5.171777 z m 50.975703,0 v 14.563973 h 11.82563 l 3.50108,-3.90209 2.40709,3.90209 h 15.97318 l -0.10955,-2.69855 2.62568,2.69855 h 4.31085 V 92.359737 h -6.38928 l -0.69298,2.078943 -2.62568,-2.078943 h -6.12676 l -0.26406,1.698604 -4.62298,0.0155 v -1.714107 h -10.68513 l -3.06338,4.522205 0.0367,-4.522205 z M 63.445223,92.906991 V 106.92371 H 65.68798 V 95.386943 Z m 66.566997,4.682918 h 3.02514 v 3.792531 h -3.02514 z" />
    <path
       id="path32"
       style="color:#000000;-inkscape-font-specification:'Dimitri Swank';fill:#ffffff;-inkscape-stroke:none"
       d="m 50.623035,92.57089 -0.07441,0.0744 -2.642216,2.66185 v 9.79734 h 5.85339 l 2.718697,-2.68407 v -9.84953 z m 6.537069,0 v 0.25011 12.28349 h 3.910356 v -9.10177 h 0.769462 v 9.10177 h 3.892269 v -9.85005 l -2.71663,-2.68355 z m 15.117424,0 v 0.25011 8.14834 l 2.685107,4.13515 h 5.869409 l 0.01757,-7.6817 h -3.910355 v 4.24987 h -0.769463 v -5.03535 h 4.662248 v -2.59158 h -4.662248 v -1.47484 z m 9.253698,0 v 0.25011 13.84205 h 3.894336 v -6.64869 h 0.767912 v 5.09013 h 3.894336 v -12.5336 h -3.894336 v 4.8519 h -0.767912 l 5.17e-4,-4.8519 z m 9.255766,0 v 0.25011 12.28349 h 8.555033 v -3.43183 h -4.66018 v -1.6583 h 1.798856 v -2.59157 h -1.798856 v -1.42007 h 4.66018 v -3.43183 z m 17.800978,0 -0.0723,0.11524 -2.61121,4.02146 v 3.30677 h 5.10718 v 1.88102 h -5.10718 v 3.20911 h 6.68538 l 1.86913,-2.09186 v -5.58984 h -4.74803 v -1.42007 h 4.7656 v -3.43183 z m 6.57014,0 v 0.25011 12.28349 h 3.89486 v -2.38332 h 4.66018 l 0.0176,-7.94525 -2.73265,-2.20503 z m 9.25629,0 V 92.821 l -5.2e-4,12.28349 h 8.55503 v -3.43183 h -4.66224 v -1.6583 h 1.80092 v -2.59157 h -1.80092 v -1.42007 h 4.66224 v -3.43183 z m 11.93932,0 -0.0744,0.11524 -2.60915,4.02146 v 8.39638 h 5.85339 l 2.7187,-2.68355 -0.0196,-4.14032 h -3.89227 v 3.71864 h -0.76791 v -5.99602 h 0.76791 v 1.95492 h 3.91191 v -5.38675 z m 6.57014,0 v 0.25011 8.14834 l 2.68563,4.13463 h 5.86889 l 0.0176,-7.68118 h -3.90984 v 4.24987 h -0.7674 v -5.03535 h 4.65967 l 5.1e-4,-2.59158 h -4.66018 v -1.47484 z m 9.25577,0 v 0.25011 12.28297 h 3.89278 v -4.56044 l 0.76946,0.77928 v 5.34024 h 3.89279 v -5.97483 l -1.5198,-1.5198 1.5198,-0.0155 0.0176,-4.37492 -2.73265,-2.2071 z m 9.25421,0 v 0.25011 9.59993 l 2.7187,2.68356 h 5.85546 v -12.5336 h -3.91243 v 9.10177 h -0.76739 v -9.10177 z m 16.65222,0 -0.0724,0.0723 -2.49804,2.46497 h -4.82606 v 9.99629 h 3.90984 v -6.56446 h 0.76946 v 6.56446 h 3.89279 v -9.10177 h 0.76739 v 9.10177 h 3.91242 V 92.57085 Z M 57.660332,93.07112 h 5.150073 l 2.422075,2.39261 v 9.14053 h -2.892847 v -9.10125 h -1.769401 v 9.10125 h -2.9099 z m 15.116907,0 h 2.892846 v 1.47484 h 4.661731 v 1.59163 h -4.661731 v 6.0353 h 1.769401 V 97.9225 h 2.9099 l -0.0155,6.68176 h -5.09943 l -2.457214,-3.78323 z m 9.254215,0 h 2.894397 v 4.85138 h 1.767334 v -4.85138 h 2.894914 v 11.53314 h -2.894914 v -5.08961 h -1.767334 v 6.64817 h -2.894397 z m 9.255766,0 h 7.554578 v 2.43137 h -4.660181 v 2.42001 h 1.798857 v 1.59215 h -1.798857 v 2.65824 h 4.660181 v 2.43137 H 91.28722 Z m 17.57205,0 h 5.11752 v 2.43137 h -4.7656 v 2.42001 h 4.74803 v 4.89841 l -1.59215,1.78335 h -5.96294 v -2.20917 h 5.1077 v -2.88044 h -5.1077 v -2.65824 z m 6.79907,0 h 5.16403 l 2.40812,1.9451 -0.0155,7.20524 h -4.66225 v 2.3828 h -2.8944 z m 9.25577,0 h 7.55458 v 2.43137 h -4.66225 v 2.42001 h 1.80092 v 1.59215 h -1.80092 v 2.65824 h 4.66225 v 2.43137 h -7.55458 z m 11.71091,0 h 5.117 v 4.38681 h -2.91197 v -1.95544 h -1.76733 v 6.99647 h 1.76733 v -3.71863 h 2.89647 l 0.0139,3.43338 -2.42207,2.39055 h -5.14853 v -7.74785 z m 6.79855,0 h 2.89492 v 1.47432 h 4.66018 v 1.59215 h -4.66018 v 6.0353 h 1.76733 V 97.9225 h 2.91042 l -0.0155,6.68176 h -5.09994 l -2.4567,-3.78323 z m 9.25629,0 h 5.16195 l 2.41019,1.9451 -0.0155,3.64267 -2.21899,0.0217 2.21692,2.21485 v 5.26738 h -2.89284 v -5.04465 L 155.57218,99.325 v 5.27926 h -2.89232 z m 9.25369,0 h 2.8944 v 9.10177 h 1.76785 v -9.10177 h 2.91197 v 11.53314 h -5.15059 l -2.42363,-2.39262 z m 16.35921,0 h 5.14852 v 11.53314 h -2.91196 v -9.10177 h -1.76785 v 9.10177 h -2.89233 V 98.0398 h -1.7694 v 6.56446 h -2.91042 v -8.99583 h 4.53151 z m -127.462502,0.002 5.148006,0.0157 v 9.12275 l -2.423625,2.39262 h -5.148523 v -9.08981 z m 0.486275,2.42931 v 0.25012 6.42028 h 1.767334 v -6.6704 z m 67.236207,0 v 0.25012 4.91236 h 1.76733 v -5.16248 z m 38.78885,0 -1.76889,5.2e-4 -5.2e-4,0.2496 v 2.16989 h 1.76941 z M 51.816244,96.00266 h 0.767912 v 5.66994 h -0.767912 z m 67.236726,0 h 0.76739 v 4.16202 h -0.76739 z m 37.01944,0 h 0.76946 v 1.42007 h -0.76946 z" />
    <path
       id="path46"
       style="fill:url(#linearGradient48);stroke-width:0.899888;fill-opacity:1"
       d="m 105.37126,97.25928 3.29588,-4.899562 h 12.32626 l 2.68187,2.114548 0.77361,-2.114548 h 2.78013 v 14.563812 h -3.41823 l -0.0938,-2.33313 -4.31892,-0.29261 -0.54702,2.62574 h -4.26683 l -0.0729,-2.62574 -2.18812,2.62574 -7.14097,0.0729 0.0745,-3.83502 0.59299,-1.25118 -0.5662,-0.12867 z" />
    <g
       id="path2">
      <path
         style="color:#000000;-inkscape-font-specification:'Dimitri Swank';fill:#000000;-inkscape-stroke:none"
         d="m 56.964735,102.64401 -0.462753,1.66248 -2.999325,2.96505 h -6.547098 l 0.01714,-11.6888 3.444939,-3.479217 h 6.547098 z m -0.736977,-0.3085 V 92.8405 h -5.501619 l -2.57085,2.587989 v 9.443591 h 5.501619 z m -3.393522,-0.3942 H 51.56595 v -6.170041 h 1.268286 z m 13.385574,3.66774 -0.462753,1.66249 H 56.210635 V 93.766006 l 0.462753,-1.662483 h 6.547098 l 2.999324,2.965047 z m -0.736977,-0.73697 V 95.377072 L 62.911984,92.8405 h -5.501619 v 12.03158 h 3.410661 v -9.100811 h 1.268286 v 9.100811 z m 15.836469,0.73697 -0.462753,1.66249 h -6.615654 l -2.91363,-4.47328 v -9.032254 l 0.462753,-1.662483 h 4.867476 v 1.473954 h 4.661808 z m -0.719838,-7.918213 h -3.410661 v 4.250473 h -1.268286 v -5.535898 h 4.661808 V 94.314454 H 75.920517 V 92.8405 h -3.393522 v 8.07247 l 2.57085,3.95911 h 5.48448 z m 9.974914,7.918213 -0.462753,1.66249 H 85.91257 l -0.462753,1.55965 H 80.582341 V 93.766006 l 0.462753,-1.662483 h 9.529284 z m -0.736977,-0.73697 V 92.8405 h -3.393522 v 4.850337 H 85.175593 V 92.8405 h -3.393522 v 13.59123 h 3.393522 v -6.649935 h 1.268286 v 5.090285 z m 9.99205,0.73697 -0.462753,1.66249 H 89.837414 V 93.766006 l 0.462753,-1.662483 h 9.529284 v 4.404723 l -0.462753,1.662483 h -2.39946 v 2.348041 l -0.462753,0.68556 h 3.324966 z m -0.736977,-0.73697 v -2.93077 h -4.661808 v -2.159515 h 1.799595 v -2.090958 h -1.799595 v -1.919568 h 4.661808 V 92.8405 h -8.05533 v 12.03158 z m 15.870746,-8.363834 -0.17139,0.445614 h 0.15425 v 6.25573 l -0.46275,1.66249 -2.14238,2.39946 h -7.38691 v -4.18192 l 0.46276,-0.90837 h -0.46276 l 0.0171,-4.918888 3.35925,-5.158839 h 6.63279 z m -0.73698,-0.736977 V 92.8405 h -5.50162 l -2.57085,3.959109 v 2.982186 h 5.10743 v 2.382325 h -5.10743 v 2.70796 h 6.3243 l 1.73103,-1.93671 v -5.244533 h -4.7475 v -1.919568 z m 9.99206,-1.216869 -0.0171,8.68947 -0.46275,1.66249 -4.19906,-0.0171 v 0.71983 l -0.46275,1.66249 h -4.86748 V 93.766006 l 0.46276,-1.662483 h 6.49568 z m -0.73698,0.359919 -2.57085,-2.073819 h -5.50162 v 12.03158 h 3.39352 v -2.38232 h 4.66181 z m -3.41066,5.518761 h -1.26829 v -4.661811 h 1.26829 z m 13.38557,5.17597 -0.46275,1.66249 H 123.4642 V 93.766006 l 0.46275,-1.662483 h 9.52928 v 4.404723 l -0.46275,1.662483 h -2.39946 v 2.348041 l -0.46275,0.68556 h 3.32496 z m -0.73697,-0.73697 v -2.93077 h -4.66181 v -2.159515 h 1.79959 v -2.090958 h -1.79959 v -1.919568 h 4.66181 V 92.8405 h -8.05533 v 12.03158 z m 10.00919,-12.768557 v 10.540487 l -0.46276,1.66248 -2.99932,2.96505 h -6.5471 l 0.0171,-9.992039 3.35924,-5.175978 z m -0.73698,0.736977 h -5.50162 l -2.57085,3.959109 v 8.072471 h 5.50162 l 2.57085,-2.53657 -0.0171,-3.787723 h -3.39352 v 3.719163 h -1.26829 v -6.495681 h 1.26829 v 1.953846 h 3.41066 z m 9.97492,12.76855 -0.46276,1.66249 h -6.61565 l -2.91363,-4.47328 v -9.032254 l 0.46275,-1.662483 h 4.86748 v 1.473954 h 4.66181 z m -0.71984,-7.918213 h -3.41066 v 4.250473 h -1.26829 v -5.535898 h 4.66181 V 94.314454 H 146.5676 V 92.8405 h -3.39352 v 8.07247 l 2.57085,3.95911 h 5.48448 z m 9.99205,-3.136437 -0.0171,5.107422 -0.27422,0.565588 0.27422,0.27422 v 6.66707 l -0.46275,1.66249 h -4.86748 v -1.55965 h -4.66181 V 93.766006 l 0.46276,-1.662483 h 6.49568 z m -0.73698,0.359919 -2.57085,-2.073819 h -5.50162 v 12.03158 h 3.39353 v -4.918895 l 1.26828,1.285425 v 5.19312 h 3.39352 v -5.6216 l -1.86815,-1.868146 1.86815,-0.01714 z m -3.41066,2.776518 h -1.26828 v -1.919568 h 1.26828 z m 13.40271,7.918213 -0.46275,1.66249 h -6.52996 l -3.01646,-2.96505 V 93.766006 l 0.46275,-1.662483 h 9.54642 z m -0.73697,-0.73697 V 92.8405 h -3.41066 v 9.10081 h -1.26829 V 92.8405 h -3.39352 v 9.49501 l 2.57085,2.53657 z m 14.67099,0.73697 -0.46275,1.66249 H 169.73957 V 96.302578 l 0.46275,-1.662483 h 5.12456 l 2.57085,-2.536572 h 6.52996 z m -0.73697,-0.73697 V 92.8405 h -5.50162 l -2.57085,2.536572 h -4.67895 v 9.495008 h 3.41066 v -6.564239 h 1.26829 v 6.564239 h 3.39352 v -9.100811 h 1.26829 v 9.100811 z"
         id="path3" />
    </g>
  </g>
</svg>
